<svg width="427" height="276" viewBox="0 0 427 276" fill="none" xmlns="http://www.w3.org/2000/svg">
  <g id="c9788b6c">
    <g id="65bbae3a">
      <path fill-rule="evenodd" clip-rule="evenodd" d="M308 242.13C308 260.355 294.569 275.13 278 275.13C260.104 276.178 246.444 259.084 248 239.63C247.482 219.739 260.885 203.371 278 205.13C296.774 203.985 309.726 223.009 308 242.13ZM277.5 266C288.822 266 298 254.583 298 240.5C298 226.417 288.822 215 277.5 215C266.178 215 257 226.417 257 240.5C257 254.583 266.178 266 277.5 266Z" fill="#D9D9D9"></path>
      <path d="M0 211.88C0 214.779 2.35051 217.13 5.25 217.13H15.5V266.88C15.5 269.779 17.8505 272.13 20.75 272.13C23.6495 272.13 26 269.779 26 266.88V217.13H36.25C39.1495 217.13 41.5 214.779 41.5 211.88C41.5 208.98 39.1495 206.63 36.25 206.63H5.25C2.35051 206.63 0 208.98 0 211.88Z" fill="#D9D9D9"></path>
      <path d="M51.5 266.63C51.5 269.667 53.9624 272.13 57 272.13C60.0376 272.13 62.5 269.667 62.5 266.63V242.63H89.5V266.63C89.5 269.667 91.9624 272.13 95 272.13C98.0376 272.13 100.5 269.667 100.5 266.63V212.13C100.5 209.092 98.0376 206.63 95 206.63C91.9624 206.63 89.5 209.092 89.5 212.13V232.13H62.5V212.13C62.5 209.092 60.0376 206.63 57 206.63C53.9624 206.63 51.5 209.092 51.5 212.13V266.63Z" fill="#D9D9D9"></path>
      <path d="M149.5 211.88C149.5 208.98 147.149 206.63 144.25 206.63H119C116.239 206.63 114 208.868 114 211.63V267.13C114 269.891 116.239 272.13 119 272.13H144C147.038 272.13 149.5 269.667 149.5 266.63C149.5 263.592 147.038 261.13 144 261.13H125V242.63H142.25C145.149 242.63 147.5 240.279 147.5 237.38C147.5 234.48 145.149 232.13 142.25 232.13H125V217.13H144.25C147.149 217.13 149.5 214.779 149.5 211.88Z" fill="#D9D9D9"></path>
      <path fill-rule="evenodd" clip-rule="evenodd" d="M192.5 207.63C192.5 207.077 192.948 206.63 193.5 206.63H223.479C225.134 206.63 226.775 207.018 228.174 207.903C238.778 214.62 251.567 230.181 231 248.13C234.063 251.472 239.616 259.281 241.127 267.358C241.62 269.993 239.384 272.13 236.704 272.13H234.904C232.61 272.13 230.628 270.562 229.852 268.403C227.54 261.977 222.737 253.103 215.5 251.13H203V267.13C203 269.891 200.761 272.13 198 272.13H197.5C194.739 272.13 192.5 269.891 192.5 267.13V207.63ZM202.5 216.5V239.5H224.5C226.667 238.167 231.1 233.9 231.5 227.5C231.9 221.1 226.333 217.5 223.5 216.5H202.5Z" fill="#D9D9D9"></path>
      <path fill-rule="evenodd" clip-rule="evenodd" d="M335.028 207.13C330.573 207.13 326.659 210.085 325.439 214.37L310.894 265.474C309.945 268.811 312.451 272.13 315.92 272.13C318.318 272.13 320.408 270.498 320.99 268.172L323.5 258.13L344.5 253.13L349.814 268.664C350.523 270.737 352.472 272.13 354.663 272.13C358.081 272.13 360.541 268.848 359.582 265.567L344.596 214.302C343.354 210.051 339.456 207.13 335.028 207.13ZM333.6 220.707L326.95 244.397C326.746 245.123 327.389 245.805 328.126 245.644L341.426 242.735C342.002 242.609 342.345 242.015 342.165 241.453L335.515 220.672C335.213 219.728 333.868 219.752 333.6 220.707Z" fill="#D9D9D9"></path>
      <path fill-rule="evenodd" clip-rule="evenodd" d="M372.5 212.13C372.5 209.368 374.739 207.13 377.5 207.13H406C413 209.296 427 216.83 427 229.63V249.63C425.5 256.296 419.2 270.13 406 272.13H377.5C374.739 272.13 372.5 269.891 372.5 267.13V212.13ZM383 259.5V218C383 217.448 383.448 217 384 217H403C408.167 217.5 418.3 222.3 417.5 237.5V244C417.167 249 413.8 259.3 403 260.5H384C383.448 260.5 383 260.052 383 259.5Z" fill="#D9D9D9"></path>
    </g>
    <g id="f4201c65">
      <path d="M283 0H300L297 16H279.5L283 0Z" fill="#61C1BF"></path>
      <path d="M257 15H280.5L275.5 38H251L257 15Z" fill="#61C1BF"></path>
      <path d="M267 59H284.5L280.5 75H263.5L267 59Z" fill="#61C1BF"></path>
      <path d="M204.5 36H222L218 53H200.5L204.5 36Z" fill="#61C1BF"></path>
      <path d="M216 52H239.5L234 75H210L216 52Z" fill="#61C1BF"></path>
      <path d="M232 74H264.5L257 106H224L232 74Z" fill="#61C1BF"></path>
      <path d="M178.5 105H224.5L214 151H166L178.5 105Z" fill="#61C1BF"></path>
      <path d="M162 84H186L180 106.5H156L162 84Z" fill="#61C1BF"></path>
      <path d="M135 150H168.5L160.5 182H127.5L135 150Z" fill="#61C1BF"></path>
    </g>
  </g>
</svg>